STARTFONT 2.1
COMMENT This font is still under development.
COMMENT You can use, copy, modify, distribute this file for free.
COMMENT
COMMENT 94.05.10 created by TAKAHASHI N. <ntakahas@etl.go.jp>
COMMENT   - Arabic digit for Mule
COMMENT 94.09.14 modified by TAKAHASHI N. <ntakahas@etl.go.jp>
COMMENT 
FONT -ETL-Fixed-Medium-R-Normal--16-160-72-72-C-80-MuleArabic-0
SIZE 16 72 72
FONTBOUNDINGBOX 8 25 0 -11
STARTPROPERTIES 18
FONTNAME_REGISTRY ""
FOUNDRY "ETL"
FAMILY_NAME "Fixed"
WEIGHT_NAME "Medium"
SLANT "R"
SETWIDITH_NAME "Normal"
ADD_STYLE_NAME ""
PIXEL_SIZE 16
POINT_SIZE 160
RESOLUTION_X 72
RESOLUTION_Y 72
SPACING "C"
AVERAGE_WIDTH 80
CHARSET_REGISTRY "MuleArabic"
CHARSET_ENCODING "0"
DEFAULT_CHAR 33
FONT_ASCENT 14
FONT_DESCENT 11
ENDPROPERTIES
CHARS 10
STARTCHAR Arabic number zero
ENCODING 33
SWIDTH 500 0
DWIDTH 8 0
BBX 8 25 0 -11
BITMAP
00
00
00
00
00
10
38
7c
38
10
00
00
00
00
00
00
00
00
00
00
00
00
00
00
00
ENDCHAR
STARTCHAR Arabic number one
ENCODING 34
SWIDTH 500 0
DWIDTH 8 0
BBX 8 25 0 -11
BITMAP
00
20
60
60
30
30
30
18
18
18
0c
0c
04
04
00
00
00
00
00
00
00
00
00
00
00
ENDCHAR
STARTCHAR Arabic number two
ENCODING 35
SWIDTH 500 0
DWIDTH 8 0
BBX 8 25 0 -11
BITMAP
00
42
c2
e6
7c
78
30
30
10
18
18
08
08
08
00
00
00
00
00
00
00
00
00
00
00
ENDCHAR
STARTCHAR Arabic number three
ENCODING 36
SWIDTH 500 0
DWIDTH 8 0
BBX 8 25 0 -11
BITMAP
00
92
92
f6
fe
ec
60
60
20
30
30
10
10
10
00
00
00
00
00
00
00
00
00
00
00
ENDCHAR
STARTCHAR Arabic number four
ENCODING 37
SWIDTH 500 0
DWIDTH 8 0
BBX 8 25 0 -11
BITMAP
00
00
0c
1c
30
60
30
18
30
60
40
60
7e
3c
00
00
00
00
00
00
00
00
00
00
00
ENDCHAR
STARTCHAR Arabic number five
ENCODING 38
SWIDTH 500 0
DWIDTH 8 0
BBX 8 25 0 -11
BITMAP
00
00
18
3c
3c
66
66
42
42
66
7e
3c
18
00
00
00
00
00
00
00
00
00
00
00
00
ENDCHAR
STARTCHAR Arabic number six
ENCODING 39
SWIDTH 500 0
DWIDTH 8 0
BBX 8 25 0 -11
BITMAP
00
40
7c
7c
3c
0c
0c
0c
04
06
06
06
02
02
00
00
00
00
00
00
00
00
00
00
00
ENDCHAR
STARTCHAR Arabic number seven
ENCODING 40
SWIDTH 500 0
DWIDTH 8 0
BBX 8 25 0 -11
BITMAP
00
00
c6
c6
c6
c6
6c
6c
6c
38
38
38
10
10
00
00
00
00
00
00
00
00
00
00
00
ENDCHAR
STARTCHAR Arabic number eight
ENCODING 41
SWIDTH 500 0
DWIDTH 8 0
BBX 8 25 0 -11
BITMAP
00
00
10
10
38
38
38
6c
6c
6c
c6
c6
c6
c6
00
00
00
00
00
00
00
00
00
00
00
ENDCHAR
STARTCHAR Arabic number nine
ENCODING 42
SWIDTH 500 0
DWIDTH 8 0
BBX 8 25 0 -11
BITMAP
00
30
78
58
c8
cc
fc
6c
0c
0c
06
06
06
06
00
00
00
00
00
00
00
00
00
00
00
ENDCHAR
ENDFONT
