STARTFONT 2.1
COMMENT This font is still under development.
COMMENT You can use, copy, modify, distribute this file for free.
COMMENT
COMMENT This font was automatically resized by bdfresize
COMMENT mag_x = 3/2, mag_y = 36/25, threshold = 20%
COMMENT 
COMMENT 94.05.10 created by TAKAHASHI N. <ntakahas@etl.go.jp>
COMMENT   - Arabic digit for Mule
COMMENT 94.09.14 modified by TAKAHASHI N. <ntakahas@etl.go.jp>
COMMENT 
FONT -ETL-Fixed-Medium-R-Normal--24-240-72-72-C-120-MuleArabic-0
SIZE 24 72 72
FONTBOUNDINGBOX 12 36 0 -15
STARTPROPERTIES 18
FONTNAME_REGISTRY ""
FOUNDRY "ETL"
FAMILY_NAME "Fixed"
WEIGHT_NAME "Medium"
SLANT "R"
SETWIDITH_NAME "Normal"
ADD_STYLE_NAME ""
PIXEL_SIZE 24
POINT_SIZE 240
RESOLUTION_X 72
RESOLUTION_Y 72
SPACING "C"
AVERAGE_WIDTH 120
CHARSET_REGISTRY "MuleArabic"
CHARSET_ENCODING "0"
DEFAULT_CHAR 33
FONT_ASCENT 21
FONT_DESCENT 15
ENDPROPERTIES
CHARS 10
STARTCHAR Arabic number zero
ENCODING 33
SWIDTH 500 0
DWIDTH 12 0
BBX 12 36 0 -16
BITMAP
0000
0000
0000
0000
0000
0000
0000
0000
0400
0e00
1f00
3f80
1f00
0e00
0400
0000
0000
0000
0000
0000
0000
0000
0000
0000
0000
0000
0000
0000
0000
0000
0000
0000
0000
0000
0000
0000
ENDCHAR
STARTCHAR Arabic number one
ENCODING 34
SWIDTH 500 0
DWIDTH 12 0
BBX 12 36 0 -16
BITMAP
0000
0000
1800
3800
3c00
1c00
1e00
0e00
0e00
0600
0700
0700
0300
0300
0380
0380
0180
0180
0180
0180
0000
0000
0000
0000
0000
0000
0000
0000
0000
0000
0000
0000
0000
0000
0000
0000
ENDCHAR
STARTCHAR Arabic number two
ENCODING 35
SWIDTH 500 0
DWIDTH 12 0
BBX 12 36 0 -16
BITMAP
0000
0000
c060
e0e0
7fc0
7f80
3c00
3800
1c00
0c00
0e00
0e00
0600
0600
0700
0300
0300
0300
0300
0100
0000
0000
0000
0000
0000
0000
0000
0000
0000
0000
0000
0000
0000
0000
0000
0000
ENDCHAR
STARTCHAR Arabic number three
ENCODING 36
SWIDTH 500 0
DWIDTH 12 0
BBX 12 36 0 -16
BITMAP
0000
0000
e260
e660
ffe0
7fc0
3c80
1800
1c00
0c00
0e00
0e00
0600
0600
0700
0300
0300
0300
0300
0100
0000
0000
0000
0000
0000
0000
0000
0000
0000
0000
0000
0000
0000
0000
0000
0000
ENDCHAR
STARTCHAR Arabic number four
ENCODING 37
SWIDTH 500 0
DWIDTH 12 0
BBX 12 36 0 -16
BITMAP
0000
0000
0000
0300
0700
0e00
1c00
1800
1c00
0f00
0f00
1e00
3800
3000
7000
6000
7820
7fe0
3fc0
0f00
0000
0000
0000
0000
0000
0000
0000
0000
0000
0000
0000
0000
0000
0000
0000
0000
ENDCHAR
STARTCHAR Arabic number five
ENCODING 38
SWIDTH 500 0
DWIDTH 12 0
BBX 12 36 0 -16
BITMAP
0000
0000
0000
0700
0f80
1f80
1dc0
38c0
30e0
7060
6060
6060
6060
6060
7060
78e0
7fc0
3fc0
0f00
0000
0000
0000
0000
0000
0000
0000
0000
0000
0000
0000
0000
0000
0000
0000
0000
0000
ENDCHAR
STARTCHAR Arabic number six
ENCODING 39
SWIDTH 500 0
DWIDTH 12 0
BBX 12 36 0 -16
BITMAP
0000
0000
4000
6080
7f80
3f80
1f80
0380
0180
0180
01c0
01c0
01c0
00c0
00c0
00e0
00e0
0060
0060
0060
0000
0000
0000
0000
0000
0000
0000
0000
0000
0000
0000
0000
0000
0000
0000
0000
ENDCHAR
STARTCHAR Arabic number seven
ENCODING 40
SWIDTH 500 0
DWIDTH 12 0
BBX 12 36 0 -16
BITMAP
0000
0000
0000
c060
e0e0
e0e0
60c0
71c0
71c0
3180
3b80
3b80
1b00
1f00
1f00
0e00
0e00
0e00
0400
0400
0000
0000
0000
0000
0000
0000
0000
0000
0000
0000
0000
0000
0000
0000
0000
0000
ENDCHAR
STARTCHAR Arabic number eight
ENCODING 41
SWIDTH 500 0
DWIDTH 12 0
BBX 12 36 0 -16
BITMAP
0000
0000
0000
0400
0400
0e00
0e00
0e00
1f00
1f00
1b00
3b80
3b80
3180
71c0
71c0
60c0
e0e0
e0e0
c060
0000
0000
0000
0000
0000
0000
0000
0000
0000
0000
0000
0000
0000
0000
0000
0000
ENDCHAR
STARTCHAR Arabic number nine
ENCODING 42
SWIDTH 500 0
DWIDTH 12 0
BBX 12 36 0 -16
BITMAP
0000
0000
1e00
3e00
7f00
7300
6380
6380
7f80
3f80
1d80
01c0
01c0
00c0
00c0
00c0
00e0
0060
0060
0020
0000
0000
0000
0000
0000
0000
0000
0000
0000
0000
0000
0000
0000
0000
0000
0000
ENDCHAR
ENDFONT
