STARTFONT 2.1
COMMENT 97.1.21  Created by Toru TOMABECHI <Toru.Tomabechi@orient.unil.ch>.
COMMENT The glyphs are taken, using PS2PK and PK2BM, from TibMdxA type 1 font,
COMMENT originally designed by Christopher FYNN <cfynn@sahaja.demon.co.uk>.
COMMENT Slight modification has been made using XMBDFED and glyphs have
COMMENT been re-ordered.
COMMENT 
COMMENT Original glyph design: (C) Christopher FYNN 1993-1994.
COMMENT Many thanks to Chris for kindly permitting its
COMMENT non-commercial use for our implementation.
COMMENT 
COMMENT 97.06.19 CHARSET_REGISTRY field changed by K. Handa <handa@etl.go.jp>
COMMENT 
FONT -TibMdXA-fixed-medium-r-normal--24-240-72-72-m-120-MuleTibetan-1
SIZE 24 72 72
FONTBOUNDINGBOX 12 23 0 -5
STARTPROPERTIES 23
FOUNDRY "misc"
FAMILY_NAME "fixed"
WEIGHT_NAME "medium"
SLANT "r"
SETWIDTH_NAME "normal"
ADD_STYLE_NAME ""
PIXEL_SIZE 12
POINT_SIZE 120
RESOLUTION_X 72
RESOLUTION_Y 72
SPACING "m"
AVERAGE_WIDTH 120
CHARSET_REGISTRY "MuleTibetan"
CHARSET_ENCODING "1"
STRIKEOUT_ASCENT 25
STRIKEOUT_DESCENT 10
X_HEIGHT 12
FACE_NAME "Mule Tibetan (1col 24dots)"
COPYRIGHT "Original design (C) Christopher FYNN 1993-1994"
FONT_ASCENT 25
FONT_DESCENT 10
DEFAULT_CHAR 8481
_XMBDFED_INFO "Edited with xmbdfed 1.6."
ENDPROPERTIES
CHARS 8
STARTCHAR space
ENCODING 8481
SWIDTH 500 0
DWIDTH 12 0
BBX 12 18 0 0
BITMAP
FFF0
8010
8010
8010
8010
8010
8010
8010
8010
8010
8010
8010
8010
8010
8010
8010
8010
FFF0
ENDCHAR
STARTCHAR TIBETAN MARK INTERSYLLABIC TSHEG
ENCODING 8507
SWIDTH 500 0
DWIDTH 12 0
BBX 5 3 3 15
BITMAP
F8
70
20
ENDCHAR
STARTCHAR TIBETAN MARK SHAD
ENCODING 8509
SWIDTH 500 0
DWIDTH 12 0
BBX 4 23 3 -5
BITMAP
F0
E0
E0
E0
60
60
60
60
60
60
60
60
60
60
60
60
20
20
20
20
20
20
20
ENDCHAR
STARTCHAR TIBETAN MARK TSHEG SHAD
ENCODING 8511
SWIDTH 500 0
DWIDTH 12 0
BBX 6 23 4 -5
BITMAP
FC
78
30
00
70
70
30
30
30
30
30
30
30
30
30
30
30
10
10
10
10
10
10
ENDCHAR
STARTCHAR TIBETAN SIGN GNYIS TSHEG SHAD
ENCODING 8512
SWIDTH 500 0
DWIDTH 12 0
BBX 8 23 1 -5
BITMAP
7F
FE
00
7C
38
00
3C
38
38
18
18
18
18
18
18
18
18
08
08
08
08
08
08
ENDCHAR
STARTCHAR TIBETAN SIGN RIN CHEN SPUNG SHAD
ENCODING 8513
SWIDTH 500 0
DWIDTH 12 0
BBX 8 23 1 -5
BITMAP
E7
66
00
3C
18
00
3C
38
38
18
18
18
18
18
18
08
08
08
08
08
08
08
08
ENDCHAR
STARTCHAR TIBETAN MARK GTER TSHEG
ENCODING 8516
SWIDTH 500 0
DWIDTH 12 0
BBX 11 11 1 7
BITMAP
3E00
4300
6100
3E00
80E0
FF00
0000
3E00
6380
6180
1E00
ENDCHAR
STARTCHAR TIBETAN SIGN RNAM BCAD
ENCODING 8800
SWIDTH 500 0
DWIDTH 12 0
BBX 8 11 2 7
BITMAP
7C
86
82
E6
38
00
38
46
83
C2
7C
ENDCHAR
ENDFONT
