/* XPM */
static const char * error_image_xpm[] = {
"16 16 6 1",
"  c gray0",
". c #cc0000",
"X c gray60",
"o c gray80",
"O c gray97",
"+ c white",
"                ",
" +++++++++++++o ",
" +OOOOOOOOOOOOX ",
" +OOOOOOOOOOOOX ",
" +OOOOOOOOOOOOX ",
" +OOO..OO..OOOX ",
" +OOO......OOOX ",
" +OOOO....OOOOX ",
" +OOOO....OOOOX ",
" +OOO......OOOX ",
" +OOO..OO..OOOX ",
" +OOOOOOOOOOOOX ",
" +OOOOOOOOOOOOX ",
" +OOOOOOOOOOOOX ",
" oXXXXXXXXXXXXX ",
"                "
};
