/* Created with The GIMP */
#define hand_cursor_mask_width 17
#define hand_cursor_mask_height 22
static unsigned char hand_cursor_mask_bits[] = {
   0x60, 0x00, 0x00, 0xf0, 0x00, 0x00, 0xf0, 0x00, 0x00, 0xf0, 0x00, 0x00,
   0xf0, 0x00, 0x00, 0xf0, 0x03, 0x00, 0xf0, 0x1f, 0x00, 0xf0, 0x7f, 0x00,
   0xf0, 0xff, 0x00, 0xf7, 0xff, 0x01, 0xff, 0xff, 0x01, 0xff, 0xff, 0x01,
   0xfe, 0xff, 0x01, 0xfc, 0xff, 0x01, 0xfc, 0xff, 0x01, 0xf8, 0xff, 0x01,
   0xf8, 0xff, 0x00, 0xf0, 0xff, 0x00, 0xf0, 0xff, 0x00, 0xe0, 0x7f, 0x00,
   0xe0, 0x7f, 0x00, 0xe0, 0x7f, 0x00 };
