/* XPM */
static char *braille[]={
"16 16 5 1",
". c None",
"b c #000000",
"# c #393939",
"c c #737373",
"a c #acacac",
"................",
"................",
".#a...#a....a#..",
".bc...bc....cb..",
".#a...#a....a#..",
"................",
".#a...#a#a..a#..",
".bc...bcbc..cb..",
".#a...#a#a..a#..",
"................",
"......#a....a#..",
"......bc....cb..",
"......#a....a#..",
"................",
"................",
"................"};
