/* XPM */
static char *keyboard[]={
"16 16 86 2",
"Qt c None",
"#g c #202020",
"#d c #2b2b2b",
".6 c #343433",
"#a c #373737",
".K c #393939",
".H c #3e3e3e",
".7 c #404040",
"#c c #434342",
".E c #444444",
".A c #454545",
".3 c #4b4b49",
"## c #4c4c4b",
".J c #4f4e4d",
".L c #505050",
"#q c #535352",
".D c #535353",
".G c #545353",
"#f c #565555",
".2 c #585754",
".C c #595858",
"#b c #595959",
".U c #5b5a5a",
"#p c #5b5b59",
".y c #5b5b5c",
".0 c #5d5c5a",
".X c #5f5e5c",
"#s c #616161",
"#. c #626261",
".Z c #656461",
".n c #656567",
".T c #666563",
".I c #666564",
".F c #6a6969",
"#e c #6c6b69",
".B c #6c6c6b",
".R c #6e6d6b",
".Q c #727270",
"#t c #737373",
"#o c #777572",
"#k c #7b7976",
".c c #7c7c7c",
".5 c #7e7c77",
".e c #7f7f7f",
".j c #818181",
".i c #838383",
".S c #84827f",
".9 c #858485",
".b c #858585",
".h c #868686",
".4 c #888680",
".g c #888888",
"#r c #89898a",
".f c #8b8b8b",
".P c #8c8b87",
".d c #8c8c8c",
".1 c #8d8b87",
".z c #908f91",
".x c #919090",
".Y c #92908c",
".# c #929252",
".u c #939292",
".r c #959495",
".o c #969595",
".w c #989795",
".t c #9a9998",
".W c #9a9999",
".q c #9c9b9a",
"#h c #a1a0a1",
"#n c #a9a8a6",
".k c #b2b2b2",
"#m c #b3b1ae",
".8 c #b5b4b3",
".l c #b7b6b7",
"#i c #b9b7b4",
".a c #b9b9b9",
".M c #c3c2c0",
".v c #c6c4c1",
".s c #c8c6c3",
".p c #c9c7c5",
".V c #cac8c5",
".O c #cdcbc5",
".m c #cfcdca",
"#l c #d0cec8",
".N c #d3d0ca",
"#j c #e7e4dd",
"QtQtQtQtQtQtQtQtQtQtQtQtQtQtQtQt",
"QtQtQtQt.#.aQtQtQtQtQtQtQtQtQtQt",
"QtQt.a.b.cQtQtQtQtQtQtQtQtQtQtQt",
"QtQt.dQtQtQtQtQtQtQtQtQtQtQtQtQt",
"QtQt.e.d.d.d.d.d.f.g.h.i.j.kQtQt",
"QtQtQtQtQtQtQtQtQtQtQtQtQt.bQtQt",
".l.m.m.m.m.m.m.m.m.m.m.m.m.m.m.n",
".m.l.o.p.q.o.p.q.r.s.t.u.v.w.x.y",
".m.z.A.B.C.D.B.C.E.F.G.H.I.J.K.L",
".m.M.N.B.O.P.Q.O.P.R.O.S.T.N.U.A",
".V.W.X.Y.Z.X.Y.Z.0.1.2.3.4.5.6.7",
".8.9.K#.##.K#.###a#b#c#d#e#f#g.7",
"#h#i#j.U.O#k#j#j#l#m#n#o#p.N#q.7",
"#r#s.7.7.7.7.7.7.7.7.7.7.7.7.7.7",
"#t#t#t#t#t#t#t#t#t#t#t#t#t#t#t#t",
"QtQtQtQtQtQtQtQtQtQtQtQtQtQtQtQt"};
