/* XPM */
static char * stock_commandline_browser_xpm[] = {
"7 6 2 1",
" 	c None",
".	c #4B4B4B",
"  ...  ",
" ..... ",
" ..... ",
" ..... ",
"  ...  ",
"       "};
