/* XPM */
static char * icon_in_lock_xpm[] = {
"48 48 135 2",
"  	c None",
". 	c #000000",
"+ 	c #0F0000",
"@ 	c #630404",
"# 	c #450202",
"$ 	c #090000",
"% 	c #360202",
"& 	c #A43B3B",
"* 	c #B45757",
"= 	c #BC6464",
"- 	c #992A2A",
"; 	c #901E1E",
"> 	c #790505",
", 	c #020000",
"' 	c #932222",
") 	c #B15151",
"! 	c #AA4545",
"~ 	c #2A0101",
"{ 	c #010000",
"] 	c #060000",
"^ 	c #7F0A0A",
"/ 	c #5B0303",
"( 	c #730404",
"_ 	c #841010",
": 	c #881515",
"< 	c #4B0303",
"[ 	c #2E0101",
"} 	c #9E3232",
"| 	c #320202",
"1 	c #040000",
"2 	c #340101",
"3 	c #891616",
"4 	c #420202",
"5 	c #A03535",
"6 	c #0C0000",
"7 	c #080000",
"8 	c #230101",
"9 	c #0A0000",
"0 	c #3C0202",
"a 	c #140000",
"b 	c #110000",
"c 	c #1E0101",
"d 	c #AE4C4C",
"e 	c #250101",
"f 	c #590303",
"g 	c #180101",
"h 	c #540303",
"i 	c #1B0101",
"j 	c #962626",
"k 	c #1C0101",
"l 	c #240000",
"m 	c #450000",
"n 	c #650000",
"o 	c #510000",
"p 	c #530000",
"q 	c #6B0000",
"r 	c #690000",
"s 	c #921515",
"t 	c #D89595",
"u 	c #D08383",
"v 	c #CA7676",
"w 	c #C66D6D",
"x 	c #C56B6B",
"y 	c #C36767",
"z 	c #C06161",
"A 	c #BC5959",
"B 	c #BA5555",
"C 	c #B74F4F",
"D 	c #B54B4B",
"E 	c #B24646",
"F 	c #AD3D3D",
"G 	c #A83535",
"H 	c #A02828",
"I 	c #DC9F9F",
"J 	c #C87171",
"K 	c #AC3C3C",
"L 	c #AA3838",
"M 	c #A42E2E",
"N 	c #A22B2B",
"O 	c #9F2727",
"P 	c #9C2222",
"Q 	c #9A2020",
"R 	c #991E1E",
"S 	c #941717",
"T 	c #931616",
"U 	c #911313",
"V 	c #8E1010",
"W 	c #8B0C0C",
"X 	c #880909",
"Y 	c #830303",
"Z 	c #780000",
"` 	c #5B0000",
" .	c #420000",
"..	c #DB9D9D",
"+.	c #B04242",
"@.	c #A53030",
"#.	c #A12A2A",
"$.	c #901212",
"%.	c #8A0B0B",
"&.	c #850505",
"*.	c #820202",
"=.	c #B34848",
"-.	c #951919",
";.	c #8C0D0D",
">.	c #7E0000",
",.	c #740000",
"'.	c #560000",
").	c #400000",
"!.	c #8D0E0E",
"~.	c #870707",
"{.	c #C16363",
"].	c #B14444",
"^.	c #A73333",
"/.	c #961A1A",
"(.	c #760000",
"_.	c #700000",
":.	c #590000",
"<.	c #BD5B5B",
"[.	c #840404",
"}.	c #7A0000",
"|.	c #6D0000",
"1.	c #580000",
"2.	c #620000",
"3.	c #640000",
"4.	c #3E0000",
"5.	c #BB5757",
"6.	c #810101",
"7.	c #AB3A3A",
"8.	c #B85151",
"9.	c #5E0000",
"0.	c #540000",
"a.	c #4E0000",
"b.	c #4C0000",
"c.	c #2C0000",
"d.	c #230000",
"                                                                                                ",
"                                                                                                ",
"                                                                                                ",
"                                                                                                ",
"                                                        . . . .                                 ",
"                                                  . . . + @ # $ . . .                           ",
"                                                . . % & * = - ; > + . .                         ",
"                                              . , ' = ) ! - ; ; ; > ~ { .                       ",
"                                            . ] ! = & ' ^ / ( _ ; : < [ , .                     ",
"                                          . , ! = } _ | . . 1 2 ; 3 _ 4 | { .                   ",
"                                        . . ; = 5 > 6 . . . . . + : ; > | ~ .                   ",
"                                        . [ = & > 7 .           . $ _ 3 / 8 9 .                 ",
"                                        . & * : 0 . .             . a - : 0 ~ .                 ",
"                                        b * } # ] .                 . _ & @ c 1 .               ",
"                                      . @ * ^ 0 . .                   ] d _ e b .               ",
"                                      . ; * f 0 .                     . ! ; 0 g .               ",
"                                      . - ) h ~ .                     . 5 - # c .               ",
"                                      . ^ & h i .                     . j ' h k .               ",
"                                  l l l m n n o l l l l l l l l l l l l p q r l l l l           ",
"                                l s t t u v w w x y z z A B B A A B B B C D E F G H p l         ",
"                                l I J x C K L M N O P Q R S S S S T U V W X Y Z q `  .l         ",
"                                l ..y z +.@.#.O P P R T U V $.$.$.V V %.X &.*.Z q `  .l         ",
"                                l I x y =.G M O P Q -.T $.$.$.$.;.V W X X &.>.,.n '.).l         ",
"                                l ..x z +.#.O P R S s V !.%.%.%.~.X X &.*.X &.>.,.` m l         ",
"                                l ..y {.].G ^.Q /.S U $.V V V $.;.V %.%.X &.*.(._.:. .l         ",
"                .               l t z <.F #.O O P Q -.T $.$.$.$.;.V W X X X [.}.,.`  .l         ",
"                . .             l ..z z +.M N P R S s V !.%.%.%.~.X X &.*.&.[.Z |.`  .l         ",
"                . . .           l t z <.F N O Q /.S U $.V V V $.;.V %.%.X *.}._.n 1.).l         ",
"                . . . .         l ..z z F #.O O P Q -.T $.$.$.$.;.V W X X Y >.,.q :.).l         ",
"    . . . . . . . . . . .       l I x {.].G ^.P R S s V !.%.%.%.~.X X &.*.[.>._.q :. .l         ",
"    . . . . . . . . . . .       l t {.<.K O Q Q /.S U $.V V V $.;.V %.%.X [.*.,.|.2.).l         ",
"                . . . .         l ..{.z F N O O P Q -.T $.$.$.$.;.V W X X >.}.q 3.2.4.l         ",
"                . . .           l I x {.E G M P R S s V !.%.%.%.~.X X &.*.*.>._.n >.).l         ",
"                . .             l t z B K O O Q /.S U $.V V V $.;.V %.%.X Y >._.q &.).l         ",
"                .               l t z B ^.O Q O P Q -.T $.$.$.$.;.V W X X *.}._.r &.4.l         ",
"                                l t <.B G O P P R S s V !.%.%.%.~.X X &.*.}.(.|.3.s 4.l         ",
"                                l t z 5.K O P Q /.S U $.V V V $.;.V %.%.X Y >.,.q -.).l         ",
"                                l ..z <.F #.O O P Q -.T $.$.$.$.;.V W X X *.>.Z }./.).l         ",
"                                l t z <.K O Q P R S s V !.%.%.%.~.X X &.*.>.}.Z 6./.).l         ",
"                                l t A B 7.P P Q /.S U $.V V V $.;.V %.%.X [.*.V [.U ).l         ",
"                                l t 5.8.^.Q Q R T U V W %.X !.$.$.R R /./.O O P [.r 4.l         ",
"                                l q U V [.Z Z _._.q q n n 3.n n 9.3.9.` :.'.0.a.b.m c.d.        ",
"                                  d.l l l l l l l l l l l l l l l l l l l l l l l l d.          ",
"                                                                                                ",
"                                                                                                ",
"                                                                                                ",
"                                                                                                ",
"                                                                                                "};
