/* XPM */
static char * icon_unlock_xpm[] = {
"26 24 19 1",
" 	c None",
".	c #5C5C5C",
"+	c #656565",
"@	c #7B7B7B",
"#	c #313131",
"$	c #A0A0A0",
"%	c #9B9B9B",
"&	c #585858",
"*	c #6A6A6A",
"=	c #828282",
"-	c #7B7B7B",
";	c #929292",
">	c #4D4D4D",
",	c #676767",
"'	c #E1E1E1",
")	c #FFFFFF",
"!	c #C3C3C3",
"~	c #A2A2A2",
"{	c #848484",
"                          ",
"     $@++++@@             ",
"    $@.++++@@&            ",
"   $$@@##%%..&&           ",
"   %@@##  %..&&           ",
"   %%**    ++==           ",
"   %%**    ++==           ",
"   ;;**    >>==           ",
"   ;;**    >>==           ",
"         ,,,,,,,,,,,,,,,, ",
"         ,,,,,,,,,,,,,,,, ",
"         ,,''))''!!!!~~,, ",
"         ,,''))''!!!!~~,, ",
"         ,,~~!!~~~!{{,,,, ",
"     #   ,,~~!!~~~!{{,,,, ",
"     *#  ,,''))''!!!!~~,, ",
" ####### ,,''))''!!!!~~,, ",
"     *#  ,,~~!!~~!!{{,,,, ",
"     #   ,,~~!!~~!!{{,,,, ",
"         ,,''))''!!!!~~,, ",
"         ,,''))''!!!!~~,, ",
"         ,,,,,,,,,,,,,,,, ",
"         ,,,,,,,,,,,,,,,, ",
"                          "};
