/* XPM */
static char * icon_lock_xpm[] = {
"26 24 19 1",
" 	c None",
".	c #5C0000",
"+	c #650000",
"@	c #7B1F1F",
"#	c #310000",
"$	c #A03B3B",
"%	c #9B3F3F",
"&	c #582727",
"*	c #6A0000",
"=	c #821D1D",
"-	c #7B0000",
";	c #924545",
">	c #4D0000",
",	c #670000",
"'	c #E17A7A",
")	c #FF9898",
"!	c #C35C5C",
"~	c #A23B3B",
"{	c #841D1D",
"                          ",
"             ..++++@@     ",
"            ...++++@@&    ",
"           ##$$$$%%..&&   ",
"           ##$$$  %..&&   ",
"           **$$    ++==   ",
"           **$$    ++==   ",
"           --;;    >>==   ",
"           --;;    >>==   ",
"         ,,,,,,,,,,,,,,,, ",
"         ,,,,,,,,,,,,,,,, ",
"         ,,''))''!!!!~~,, ",
"         ,,''))''!!!!~~,, ",
"         ,,~~!!~~~!{{,,,, ",
"         ,,~~!!~~~!{{,,,, ",
"         ,,''))''!!!!~~,, ",
"         ,,''))''!!!!~~,, ",
"         ,,~~!!~~!!{{,,,, ",
"         ,,~~!!~~!!{{,,,, ",
"         ,,''))''!!!!~~,, ",
"         ,,''))''!!!!~~,, ",
"         ,,,,,,,,,,,,,,,, ",
"         ,,,,,,,,,,,,,,,, ",
"                          "};
