/* XPM */
static char * icon_capable_xpm[] = {
"24 24 19 1",
" 	c None",
".	c #075B00",
"+	c #086300",
"@	c #267B1F",
"#	c #032F00",
"$	c #439F3B",
"%	c #46993E",
"&	c #2A5727",
"*	c #086800",
"=	c #24801C",
"-	c #0A7B00",
";	c #4A9044",
">	c #064B00",
",	c #086700",
"'	c #81DF79",
")	c #9FFF97",
"!	c #63C15A",
"~	c #42A03A",
"{	c #25821D",
"                        ",
"   $@++++@@             ",
"  $@.++++@@&            ",
" $$@@##%%..&&           ",
" %@@##  %..&&           ",
" %%**    ++==           ",
" %%**    ++==           ",
" ;;**    >>==           ",
" ;;**    >>==           ",
"       ,,,,,,,,,,,,,,,, ",
"       ,,,,,,,,,,,,,,,, ",
"       ,,''))''!!!!~~,, ",
"       ,,''))''!!!!~~,, ",
"       ,,~~!!~~~!{{,,,, ",
"       ,,~~!!~~~!{{,,,, ",
"       ,,''))''!!!!~~,, ",
"       ,,''))''!!!!~~,, ",
"       ,,~~!!~~!!{{,,,, ",
"       ,,~~!!~~!!{{,,,, ",
"       ,,''))''!!!!~~,, ",
"       ,,''))''!!!!~~,, ",
"       ,,,,,,,,,,,,,,,, ",
"       ,,,,,,,,,,,,,,,, ",
"                        "};

