/* XPM */
static char * icon_out_unlock_xpm[] = {
"48 48 69 1",
" 	c None",
".	c #555555",
"+	c #565656",
"@	c #626262",
"#	c #5D5D5D",
"$	c #5C5C5C",
"%	c #818181",
"&	c #919191",
"*	c #999999",
"=	c #787878",
"-	c #737373",
";	c #666666",
">	c #757575",
",	c #8D8D8D",
"'	c #868686",
")	c #5A5A5A",
"!	c #696969",
"~	c #616161",
"{	c #646464",
"]	c #6B6B6B",
"^	c #6E6E6E",
"/	c #5E5E5E",
"(	c #7D7D7D",
"_	c #5B5B5B",
":	c #6F6F6F",
"<	c #7E7E7E",
"[	c #595959",
"}	c #585858",
"|	c #8B8B8B",
"1	c #606060",
"2	c #575757",
"3	c #777777",
"4	c #505050",
"5	c #BDBDBD",
"6	c #B3B3B3",
"7	c #ADADAD",
"8	c #A6A6A6",
"9	c #A1A1A1",
"0	c #9C9C9C",
"a	c #9B9B9B",
"b	c #979797",
"c	c #939393",
"d	c #909090",
"e	c #8A8A8A",
"f	c #838383",
"g	c #C5C5C5",
"h	c #ABABAB",
"i	c #808080",
"j	c #7F7F7F",
"k	c #797979",
"l	c #6A6A6A",
"m	c #676767",
"n	c #C1C1C1",
"o	c #878787",
"p	c #767676",
"q	c #747474",
"r	c #727272",
"s	c #6C6C6C",
"t	c #A3A3A3",
"u	c #636363",
"v	c #9E9E9E",
"w	c #000000",
"x	c #9F9F9F",
"y	c #8E8E8E",
"z	c #7C7C7C",
"A	c #717171",
"B	c #6D6D6D",
"C	c #707070",
"D	c #515151",
"                                                ",
"                                                ",
"                                                ",
"                                                ",
"                                ....            ",
"                             ...+@#+...         ",
"                            ..$%&*=-;+..        ",
"                           ..>*,'=---;)..       ",
"                          ..'*%>!~{]-^/)..      ",
"                         ..'*(]_..._-:]#_..     ",
"                        ..-*<;+.....+^-;_).     ",
"                        .)*%;+.     .+]:~[+.    ",
"                        .%&^#..      .+=^#).    ",
"                        +&(#..        .]%@}..   ",
"                       .@&!#..         .|][+.   ",
"                       .-&1#.          .'-#2.   ",
"                       .=,1).          .<=#}.   ",
"                       .!%1}.          .3>1}.   ",
"     444+/4444444444444411+4444        444444   ",
"    4355678990aaaaa0000abc&def[4                ",
"    4gh8*,%ij<kkkkkkkkk=:lm{1$+4                ",
"    4n89&oi<=p---qqqqqqrl!{{1$+4                ",
"    4g88c,%ij<===kkkkkkq^!{{/)+4                ",
"    4n89&oi<=3>>-qqqqqq-s!!m{$+4                ",
"    4n8tc,%ij(kp333kkkk=:l{{u$+4                ",
"    459vdoi<=p---qqqqqq-]l!;{$+4        w       ",
"    4n99&,%ij<==kkkk3k3p^l!{~$+4        ww      ",
"    459xyoi<k3>-qqqqqqqrl!{u/_+4        www     ",
"    4n99d,%i<z===3=3=3=3^l{{1$+4        wwww    ",
"    4g8tcoi<=p---qqqqqqAl!{u1$+4  wwwwwwwwwww   ",
"    45tv,,%ij<3==33=3=pqBl{{~/+4  wwwwwwwwwww   ",
"    4nt9yoi<=p---qqqqqq-l!u1//.4        wwww    ",
"    4g8tc,%ij<=kkk=3333p:l{u/m+4        www     ",
"    459a,oi<=3---qqqqqq-]!{u1]+4        ww      ",
"    459ae,%j<<=33=3=k=kp:l{u1].4        w       ",
"    45xaeoi<3p---qqqqqq-slu~/3.4                ",
"    4590,,%ijz3=kkkkkkk=:l{{1k+4                ",
"    4n9vyoi<=p---qqqqqq-l!{{;k+4                ",
"    459v,%k3-rCCCCCCBCB:m{{{!k+4                ",
"    450a,ikpq-rrr--qrqr-l!l-lp+4                ",
"    450*ejp-CC::CCrqqqq<%%jil1.4                ",
"    41p-l{11////////#/#/))[}}+D4                ",
"     44444444444444444444444444                 ",
"                                                ",
"                                                ",
"                                                ",
"                                                ",
"                                                "};
