/* XPM */
static char * icon_out_capable_xpm[] = {
"48 48 53 1",
" 	c None",
".	c #126601",
"+	c #136901",
"@	c #167C01",
"#	c #147201",
"$	c #126701",
"%	c #31951D",
"&	c #43A230",
"*	c #4EA93C",
"=	c #288E14",
"-	c #258B10",
";	c #187F03",
">	c #40A02D",
",	c #369923",
"'	c #146F01",
")	c #1B8206",
"!	c #167A01",
"~	c #1D8408",
"{	c #1F860B",
"]	c #157401",
"^	c #2D9219",
"/	c #136B01",
"(	c #3C9D29",
"_	c #157601",
":	c #278D13",
"<	c #115F01",
"[	c #7FC570",
"}	c #71BE62",
"|	c #68B958",
"1	c #5CB24B",
"2	c #59B048",
"3	c #51AB3F",
"4	c #4FAA3D",
"5	c #4BA738",
"6	c #46A433",
"7	c #42A12F",
"8	c #3B9C27",
"9	c #349720",
"0	c #8CCC80",
"a	c #65B755",
"b	c #5EB34D",
"c	c #30941C",
"d	c #2A8F15",
"e	c #198004",
"f	c #86C979",
"g	c #399B26",
"h	c #22890E",
"i	c #53AC41",
"j	c #000000",
"k	c #54AD42",
"l	c #21880D",
"m	c #20870C",
"n	c #116201",
"                                                ",
"                                                ",
"                                                ",
"                                                ",
"                                ....            ",
"                             ...+@#$...         ",
"                            ..#%&*=-;+..        ",
"                           ..-*>,=---;'..       ",
"                          ..,*%-)!;~-{]'..      ",
"                         ..,*^~'...'-{~#'..     ",
"                        ..-*^;$.....+{-;''.     ",
"                        .'*%;$.     .$~{!'$.    ",
"                        .%&{#..      .+={#'.    ",
"                        +&^#..        .~%@/..   ",
"                       .@&)#..         .(~'+.   ",
"                       .-&_#.          .,-#+.   ",
"                       .=>_'.          .^=#/.   ",
"                       .)%_/.          .:-_/.   ",
"     <<<$]<<<<<<<<<<<<<<__+<<<<        <<<<<<   ",
"    <:[[}|1223444443333456&789'<                ",
"    <0ab*>%cc^ddddddddd={)e;_#$<                ",
"    <f12&gc^=:---------h));;_#$<                ",
"    <0b16>%cc^===dddddd-{);@]'$<                ",
"    <fb2&gc^=:----------~))e@#$<                ",
"    <f126>%cc^d::::dddd={);@@#$<                ",
"    <[2i7gc^=:----------~));@#$<        j       ",
"    <f22&>%cc^==dddd:d::{));!#$<        jj      ",
"    <[2k>gc^d:---------h~)@@]'$<        jjj     ",
"    <f227>%cc^===:=:=:=:{~@@_#$<        jjjj    ",
"    <0b26gc^=:---------l))@@_#$<  jjjjjjjjjjj   ",
"    <[2i>>%cc^:==::=:=:-{);@!]$<  jjjjjjjjjjj   ",
"    <f22>gc^=:----------~)@_]].<        jjjj    ",
"    <0b26>%cc^=ddd=:::::{~@@]e$<        jjj     ",
"    <[24>gc^=:----------~);@_~$<        jj      ",
"    <[248>%cc^=::=:=d=d:{~@@_~.<        j       ",
"    <[k48gc^::----------~)@!]:.<                ",
"    <[23>>%cc^:=ddddddd={)@@_d$<                ",
"    <f2i>gc^=:----------~)@;;d$<                ",
"    <[2i>%d:-hmmmmmm{m{{e;@;)d$<                ",
"    <[34>cd:--hhh---h-h-~))-~:$<                ",
"    <[3*8c:-mm{{mmh----^%%cc~_.<                ",
"    <_:-~;__]]]]]]]]#]#]'''//$n<                ",
"     <<<<<<<<<<<<<<<<<<<<<<<<<<                 ",
"                                                ",
"                                                ",
"                                                ",
"                                                ",
"                                                "};
