/* XPM */
static char * huskers0_name[] = {
"48 54 14 1",
"       c black",
".      c white",
"X      c #a70000",
"o      c #fe0000",
"O      c #520000",
"+      c #790000",
"@      c #280000",
"#      c #d20000",
"$      c #540000",
"%      c #7d0000",
"&      c #260000",
"*      c #a80000",
"=      c #4f0000",
"-      c #a30000",
"                                                ",
"                    .........                   ",
"                 ..X........oO..                ",
"               ................X..              ",
"              .+..oo.............X.             ",
"             .+o.oo...............O.            ",
"            .@oo.o................o .           ",
"           .+.oo#.................oo+.          ",
"          .O.o.oo..................oo.          ",
"          ...o.oo..................oo$          ",
"         .#.o.oo...................oo..         ",
"         ..........................oo..         ",
"         X........X%oo.............oo.+         ",
"        .........+.oOo#oo.........ooo.&         ",
"        ...........oo oO+o........ooo.&         ",
"        *.X....Xo.o%o.o=#oXo..... ooo.&         ",
"       ....O ..+ oo.o @..O&oOoX.#XX...O         ",
"       .... &..& XX&+....&  Xo+o& $@%$X         ",
"       O.*.  .+  o.# O@....#  O&&o..o.o.        ",
"      ..+..==.++.o o      $.#+.-=&+oo@&.        ",
"      .........o. oo         .@..#  o#X.        ",
"       #.......+%#o+          ...oo+o&+.        ",
"       &.......oo.Xo&            ..&o...        ",
"       #........=&&oO       &     o#=.          ",
"       ...+......oO oo =# &%...X ..o.           ",
"       .+.......@ -o&=oO.O&....#.  +.           ",
"        .*...... oo o.Xoo@.....O. ##.           ",
"     .o. ..=$$&=.o.. ##..+oX..o#  X.            ",
"     .o. ..   ..%X....&o#.##o@@.  O&.           ",
"     .o. Oo     X#...$.&&#X. #o$ o o.           ",
"     .o. +o     .o....+..+Oo#&OOoX+o=           ",
"     Xo. X#     .o+....o@..=#oo&o@++.           ",
"     +o. XX      +o+........o XoX.X.            ",
"     Oo. X+      .Xo+..........o &*             ",
"     Oo. #+..$X&  .o#X@+......# ...             ",
"     +o..#o#Oo..    o#+oX....O# .         ..    ",
"     #o#XoX.         .XoO...Xo&%         .#.    ",
"   .$ooo.#X  & .&. .O.X#@#oXo  .+..XX   .#O     ",
" ..o#oo. ## .oo.#+.O@.#O.o+oX +oo#OoO.%.Xo&     ",
" .o#.oo. #o .o#.o&.o&.#O.oooo.oX.ooo#oX.+o& .XX.",
" .$..oo. #o..oO.o#.o&.o.Ooo++Xo..+#ooo+.Xo++ooo.",
"    .oo. #o.+o=.o..o+.ooo..#.oo.O.#X+o..ooo#..o ",
"    .oo. #o.Xo%.#. Xo.o=..XO+oX.=...O&.XooX     ",
"    .oo. Xo.+o..o&==oXo..XX.oo.+. ..o..o#oo.    ",
"    .oo. Xo.+o.#oO.+o+o#++.O#o-..o Oo.X.+oo.    ",
"    .oo. +o.ooo#oOo.o+o+#O..##..&..#=&X.#oo.    ",
"    .oo. +oX.o+.X.&oo #..o .+o$@. .o%o=.#oo.    ",
"    .oo. XoX... ...X#*o  +o$.@+   .oX+#.ooo.    ",
"    .oo$ #oo%      ...#  .OoO.     ...+#oo+.    ",
"    .oo  .oo+        .#   .ooX.       .+--.     ",
"    .oo@ .ooX        .X   .Xooo.                ",
"    .+#. .+X.         &    .=ooo.               ",
"          ..                .+o#.               ",
"                             ...                "};
