/* XPM */
static char * huskers1_name[] = {
"92 107 14 1",
"       c black",
".      c white",
"X      c #280000",
"o      c #a70000",
"O      c #fe0000",
"+      c #d20000",
"@      c #540000",
"#      c #520000",
"$      c #790000",
"%      c #7d0000",
"&      c #a80000",
"*      c #260000",
"=      c #4f0000",
"-      c #a30000",
"                                                                                            ",
"                                                                                            ",
"                                       ................                                     ",
"                                   ..... XoOOOOOOO+@@X....                                  ",
"                                ....oo+...............OO#....                               ",
"                               ..@$.......................+#...                             ",
"                             ...X...........................oX...                           ",
"                            ..%+..............................o%..                          ",
"                           ..$.....OOO.........................Oo..                         ",
"                          .. O+...+O+...........................O#..                        ",
"                         ..$OO+..OOO.............................O#..                       ",
"                        ..oOOOO..OOO.............................OO+..                      ",
"                       ..X.OOO..OOO...............................OO .                      ",
"                      ..$..OOO..OOO...............................OOO..                     ",
"                      .$..OOOO.+O.................................OOO$..                    ",
"                     ..+.OOOOOO+O.................................OOOO#.                    ",
"                    ..#..OO.OOOOO..................................OOO+..                   ",
"                    .$..OO..OOOO...................................+OOO .                   ",
"                   .....OO..OOOO...................................OOOO@.                   ",
"                   .o..OOO.OOOO....................................+OOO...                  ",
"                  ..+..OO..OOO.....................................+OOO.#.                  ",
"                  .$..OOO..OOO.....................................OOOO.#.                  ",
"                 ..&...............................................+OOO.%..                 ",
"                 .$...................oOO+.........................OOOO..&.                 ",
"                 .o...............oo.%OOOO$........................OOOO..$.                 ",
"                .....................oOOOOOOo......................+OOO..#.                 ",
"                .o...............$..+O+#OOo+OOO...................OOOOO..*.                 ",
"                .+..................+O$oOoo#oOO+o.................OOOOO..*.                 ",
"               .....................OO OO $OO#$OOO................OOOOO..*.                 ",
"               .$.............#O$..oO=#OOo$ $OO+*+OO+.............OOOO...#.                 ",
"               .&...o........o$O+..O+%#O+..O*=+OO$o+O#.........@  OOOO...*.                 ",
"              ...............*##*.#OX.$Oo....O# oOO##OO+......o###..OO...#.                 ",
"              .o...%.+# ....O$  OOOO..OO*  X@...#**+O+#oOoo..++$oOoo.....#.                 ",
"              .@......  @...O **O$O=.XOo=ooo=   %o**#OOo$OO$.#o* -#%+%...@.                 ",
"              .%.....$ * ....** Oo$o.*O$.......o*  *  oOO$$OOo*= O@+X%o@.o.                 ",
"             .....o..*   ..oO#  oO+.ooO ..........O* *  *+O+*oo+o#.O$@..o#..                ",
"             .#...&..*  X..$O   #O$.*+O  ##X.......O+  * *#+***OOO...O$.OO$..               ",
"            ......+..#  %..$O ***O+.#OO    * @X$oo....-*  $O XOOO+OOO...+O#o.               ",
"            .o.$$.....==...$+$o.OOO OO$           @..O+o$$..-==X* $oOOOX**=..               ",
"            .%.&o..........O#OO..oO*OO*               @.@..@...$   *#oO$  #.                ",
"            .o.o............*O#.. OOOO                  ..X.....+# * OO+Ooo.                ",
"            ................$o+..#oOO+                  *O......OOO$*Oo  =O.                ",
"             .+..............$O%.+#OO$    *            *  .....OOOO.$Oo* $+.                ",
"             .#..............*O+..*OO#*              **     @oOOO...*O$=#+O.                ",
"             .*..............O+O#. oOO *                 *     X....*O+.....                ",
"             .$...............*Oo. *OO#              X        *   .O$o&.                    ",
"             .+...............$=O***oOO#             ***         =O$+=..                    ",
"             .......*..........=$O$ **OOO*** * $    &....+o=** =$.. O#.                     ",
"              . ....$...........*OO#$ #OOO   =+.  * %.......o  #... O..                     ",
"              .O....+........... *oOO$ *oOOoo..&   *........X+ .@.*#o.                      ",
"              ..$......... ....X   -OO$*+=OOO#..# *%........+@.  . +$.                      ",
"               ..X........@...% ** *+OOX.O=+OO$@# =........&.#.   #O$.                      ",
"                .+&.......o...  #OXO  OOO..oXOOOX..........##..$  +O+.                      ",
"          ..... ..O$........    oO$..$*oOO++.##OOO#.......@.. @.  O$..                      ",
"          .$Oo.  ....-=@@@***=O.oO.....  +O++..o$+OOo....+O*+  @ $o*.                       ",
"          .$O+.     .......OO...++.....$ *OOO$@.$*OOO+X....O.   *+#o..                      ",
"          .$O+.  .....    .....%+o......=.**+O+o..+*+OOOX.X..* * O#O*.                      ",
"          .oOo.  .oO$.        .$Oo.......@.+*X++O+.Oo*oOOOo..# *+o*O+.                      ",
"          .+O+.  .#OO.        .oO+.......@..O**O+Oo..O =++Oo@% $O= oO..                     ",
"          .+O+.  .$OO.        ..oO+....... ...+ =+OOO@.O#*$OOOoOO#*#O .                     ",
"          .OO+.  .$OO.         .*Oo.......O$....$*#OOO+$*+#*#+OOo$$oO=.                     ",
"         ..OOo.  .oO+.         .=O+.........X....O *oOOO#..O**+OOOOOOo.                     ",
"         .oOOo.  .oO+.         .OO+$.........OX....o=*+OOOO#*$O$X*$$$..                     ",
"         .oOOo.  .oOo.         ..*OOX..........O$$$$+o* =+OOoO+@.#o&..                      ",
"         .$OOo.  .oOo.          .$#O+$................O$ *oOOOo@.$o&.                       ",
"         .#OOo.  .oOo.          ..+=OOX..................O$ OO$OOO$..                       ",
"         .#OOo.  .oO$.           ..o=OO$...................oO# ***&.                        ",
"         .#OOo.  .+Oo.  .......   ..$=OO$.................#O+*$++O..                        ",
"         .#OOo.  .+O$....@@o$*.    ..O*+Oo.X$$...........#+O  .....                         ",
"         .#OOo.  .oOoo$O+$#oO..     ... @OO#OO$..........OO# #.                             ",
"         .$OOo....+OOO+##O....        .O +O$OOo.........#O+  +.                 ....        ",
"         .oOO+.@$OOO++.....           ...o oOO#........*OO# *..                ..*X.        ",
"         .+OOO+OoXOOo..         .       ..+oOO#O......oOO * %.                ..#+$.        ",
"       ...+OOOO#o.+O+.  ..... ....    ....ooOO=OO#%..XOO#$  ..... .....      ..XO+..        ",
"     ...@OOOOoO...+Oo.  .*O ...*o..  ..#&.ooO+X=+OO+o$O$   #. $@...#oo.      .#+O#.         ",
"    ..o+OOOOO$.. .+Oo. ..oOO$..$O#. ..+#..+OO-.O**o$OO*  *#oOO++#.+oO$. ......+O+#.         ",
"  ...@OO+oOOO$.  .+O+. .$OOO#.O+O$...#OX..$+O#..Oo$OO+o  $$+OOOO+.#OO#...% ..oOOO*.         ",
"  ..#Oo#.+OOO$.  .+O+. .$OOO#.$+O=..o+OX..#+OX..#+OO+OO#O#+OOoo+O.OO+#..oO$..#OOO*.   ......",
"  .$Oo+..oOOO$.  .+OO. .OOO+o.$OO*..$OO*..#+O#.&OOOOOOO@.OO+oo.+O.OOO++OOo$..$OOO*. ...o$o#.",
"  .$Oo...$OOO$.  .+OO. .OOOo+.$OO#..oOO ..#OOo.oOO++$+OooOOO=..++$OOOO+OO+...oOOO#...XoOOO#.",
"  .=@.. .$OOO$.  .+OO...OOO#..$O++..+OO*..#OO.#OO$O.$O$.oOO-...O$o+OOOOOO$...oOO+$@$OOOOOO$.",
"  ....  .$OOO$.  .+OO..+OOO#..oO+...+OO#..#+OoO+$...*O$$OOO=..ooo+OOOOOO$...$+OOOO+o$$$@oX..",
"        .$OOO$.  .+OO..$OOO=..oO+...+O+$..#OOOO=....+-.$OOO&..#$..+Oo$oO$...*OOOOO$+....*O. ",
"        .$OOO$.  .oOO&.$OOO@..++o..$OOO++.#OO+$....$O@o+OOo..$+o.#....oO...#+OOOO+...  .... ",
"        .$OOO$.  .+OO$.oOOO%..O+$.. ooOOo.#OO=....oO#.$OO+o..$=..=...#+*...oOOOOOo.         ",
"        .$OOO$.  .+OO#.$OOO...OO$.. .oOO$.$Oo+....o=..$OO#..=++.@=...$O@...OOOOOOO..        ",
"        .$OOO$.  .oOO*.$OOO...OO *o=.=OO$oOO#...o$o.. OOO*.o$O.. O...O+...$O$+OOOO$.        ",
"        .$OOOo.  .oOO#.$OOO..$OO*#+o.=OOOoOOO@..--o.*O++OOOX...*=...$O$..#O#.oOOOO$.        ",
"        .$OOO$.  .oOO#.$OOO..+OO*#O..$OOO$OOO+$o$$..#O++O+-+... O. .#O+.#oo..$OOOO#.        ",
"        .$OOO$.  .oOO#.oOOO%X$+O$o+o..+OO&OOOOO+.....$OO+O.... o.. .o$..OO$..oOOOO$.        ",
"        .$OOOo.  .$OO+.OOOOO-+$OO#XOX.OOO$#Oo$+O#.....+O+....X*.. ..+=.*Oo...+OOOO+.        ",
"        .$OOOo.  .$OO+..OOO+X.$O+++++%+OO*#OoO$Oo@....+OO... =..  .$O#.$O$..O+OOOO+.        ",
"        .$OOO+.  .$OOOo.$Oo$..+o$..*OOOOO #+...$OO ...$OOX@oX..   .XO%@OO=...+OOOOo.        ",
"        .$OOO+.  .oOOO$.O-+....$&...$OOOOX#O. ..+OOX...#+OO#..    .$O+-+Oo...OOOOO$.        ",
"        .$OOOO.. .oOOOo.....  .... .#o+++&*O.  .$+OO@..OX@$..     .oOoo$O+..$OOOOO$.        ",
"        .oOOOOo. .oOOO+..          ..+XX%.#+.  ..XOOO@......      ..O...oOoXoOOOOo+.        ",
"        .oOOOO@. .+OOOO%.           ......#+.   ..#OOO#..          ... .$$O+OOOO+$..        ",
"        .oOOOOX. ..oOOOX.                .$+.    .oOOOO$..             ..$+OOOOO+$.         ",
"        .$OOOO . ..$OOO$.                .$+.    ..=OOO+o...            ...$$---O..         ",
"        .oOOOOX.  .#OOOo.                .++.     .OXOOOO#+.              ........          ",
"        .oOOOOX.  .XOOOo.                ..o.     ..o+OOOOO..                               ",
"        .#OOo$..  .oOOO$.                 .=.      ..oOOO+O+...                             ",
"        .O$$+..   ..$$o..                 .*.       ..=+OOO+O%.                             ",
"        ......     .oO..                  ...        ..=OOOOOo.                             ",
"                   ....                               ..$OOO+..                             ",
"                                                       ..o+O=.                              ",
"                                                        ......                              "};
