/* XPM */
static char * image_name[] = {
/* width height num_colors chars_per_pixel */
"    51    28        3            1",
/* colors */
". c Black",
"# c Red",
"a c SteelBlue",
/* pixels */
"...................................................",
"...................................................",
".##########................###.....................",
"..##########..............###......................",
"...##########............###.......................",
"....##########..........###............aaaaa.......",
".....##########........###...........aaaaaaaaa.....",
"......##########......###............aaaaaaaaa.....",
".......##########....###............aaaa...aaaa....",
"........##########..###.............aaa.....aaa....",
".........#########.###..............aaa.....aaa....",
"..........#######.###...............aaa.....aaa....",
"...........#####.####.......................aaa....",
"............###.######............aaaaaaaaaaaaaaa..",
"...........###.########...........aaaaaaaaaaaaaaa..",
"..........###.##########..........aaaaa.aaa.aaaaa..",
".........###...##########.........aa.aa.....aa.aa..",
"........###.....##########........aa.aa.aaa.aa.aa..",
".......###.......##########.......aa.aa.....aa.aa..",
"......###.........##########......aa.aa.aaa.aa.aa..",
".....###...........##########.....aa.aa.....aa.aa..",
"....###.............##########....aa.aa.aaa.aa.aa..",
"...###...............##########...aaaaaaaaaaaaaaa..",
"..###.................##########..aaaaaaaaaaaaaaa..",
"...................................................",
"...................................................",
"...................................................",
"..................................................."};
