/* XPM */
static char * stock_commandline_history_xpm[] = {
"7 6 2 1",
" 	c None",
".	c #000000",
"       ",
".......",
" ..... ",
"  ...  ",
"   .   ",
"       "};
