/* XPM */
static char * sp7_xpm[] = {
"48 48 2 1",
" 	c None",
".	c #E5E10D",
"                                                ",
"                                                ",
"                                                ",
"                                                ",
"                                                ",
"                        .                       ",
"                        .                       ",
"                        .                       ",
"                        .                       ",
"                        .                       ",
"           .            .            .          ",
"            .           .           .           ",
"             .          .          .            ",
"              .         .         .             ",
"               .        .        .              ",
"                .       .       .               ",
"                 .      .      .                ",
"                  .           .                 ",
"                   .         .                  ",
"                                                ",
"                                                ",
"                                                ",
"                                                ",
"      ............             ............     ",
"                                                ",
"                                                ",
"                                                ",
"                                                ",
"                   .         .                  ",
"                  .           .                 ",
"                 .      .      .                ",
"                .       .       .               ",
"               .        .        .              ",
"              .         .         .             ",
"             .          .          .            ",
"            .           .           .           ",
"           .            .            .          ",
"                        .                       ",
"                        .                       ",
"                        .                       ",
"                        .                       ",
"                        .                       ",
"                                                ",
"                                                ",
"                                                ",
"                                                ",
"                                                ",
"                                                "};
