#define owleyes3_width 19
#define owleyes3_height 8
static char owleyes3_bits[] = {
   0x3c, 0xe0, 0x01, 0x42, 0x10, 0x02, 0x81, 0x08, 0x04, 0xff, 0xf8, 0x07,
   0xad, 0x68, 0x05, 0x9b, 0xd8, 0x04, 0x67, 0x38, 0x03, 0x7e, 0xf0, 0x01};
