#define owleyes5_width 19
#define owleyes5_height 8
static char owleyes5_bits[] = {
   0x3c, 0xe0, 0x01, 0x42, 0x10, 0x02, 0x81, 0x08, 0x04, 0x81, 0x08, 0x04,
   0x81, 0x08, 0x04, 0xff, 0xf8, 0x07, 0x67, 0x38, 0x03, 0x7e, 0xf0, 0x01};
